<?xml version="1.0" standalone="no"?><!DOCTYPE svg PUBLIC "-//W3C//DTD SVG 1.1//EN" "http://www.w3.org/Graphics/SVG/1.1/DTD/svg11.dtd"><svg t="1757142652782" class="icon" viewBox="0 0 1024 1024" version="1.1" xmlns="http://www.w3.org/2000/svg" p-id="33298" xmlns:xlink="http://www.w3.org/1999/xlink" width="200" height="200"><path d="M468.992 169.536c29.312-22.528 64.128-40.768 101.312-25.088 36.864 15.616 48.64 53.12 53.76 90.048 5.248 37.824 5.248 89.92 5.248 154.688v245.568c0 64.768 0 116.864-5.184 154.752-5.12 36.864-16.96 74.368-53.76 89.984-37.248 15.744-72.064-2.56-101.376-25.088-30.016-23.04-68.032-61.888-112.832-107.584-23.04-23.552-38.336-34.944-53.76-41.28-15.616-6.4-34.496-9.152-67.456-9.152-28.544 0-54.08 0-73.408-2.048-20.224-2.112-39.04-6.656-56-18.24-32.192-22.016-44.544-54.208-49.28-83.84C52.864 570.24 53.248 545.984 53.568 526.464v-28.928c-0.32-19.52-0.64-43.776 2.816-65.92 4.672-29.568 17.024-61.76 49.28-83.776 16.896-11.52 35.712-16.128 55.936-18.24 19.328-1.984 44.8-1.984 73.344-1.984 33.024 0 51.904-2.752 67.456-9.152 15.488-6.4 30.72-17.792 53.76-41.28 44.8-45.696 82.88-84.608 112.896-107.648zM699.52 350.08a42.688 42.688 0 0 1 59.776 8.064c32.256 42.24 51.392 95.872 51.392 153.856 0 57.92-19.136 111.552-51.392 153.856a42.688 42.688 0 1 1-67.84-51.712c21.056-27.648 33.92-63.104 33.92-102.144 0-39.04-12.864-74.496-33.92-102.144a42.688 42.688 0 0 1 8-59.776z" fill="#e6e6e6" p-id="33299"></path><path d="M884.8 269.824a42.688 42.688 0 1 0-62.912 57.6C868.736 378.688 896 442.88 896 512c0 69.12-27.264 133.312-74.112 184.512a42.688 42.688 0 0 0 62.912 57.6c59.904-65.344 96.512-149.632 96.512-242.112 0-92.48-36.608-176.768-96.512-242.176z" fill="#e6e6e6" p-id="33300"></path></svg>