<?xml version="1.0" standalone="no"?><!DOCTYPE svg PUBLIC "-//W3C//DTD SVG 1.1//EN" "http://www.w3.org/Graphics/SVG/1.1/DTD/svg11.dtd"><svg t="1757140838110" class="icon" viewBox="0 0 1024 1024" version="1.1" xmlns="http://www.w3.org/2000/svg" p-id="25189" xmlns:xlink="http://www.w3.org/1999/xlink" width="200" height="200"><path d="M788.48 170.666667H235.52c-35.84 0-64.853333 29.013333-64.853333 64.853333v552.96c0 35.84 29.013333 64.853333 64.853333 64.853333h552.96c35.84 0 64.853333-29.013333 64.853333-64.853333V235.52c0-35.84-29.013333-64.853333-64.853333-64.853333z" fill="#e6e6e6" p-id="25190"></path><path d="M868.693333 34.133333H733.866667c-18.773333 0-32.426667 15.36-32.426667 32.426667s15.36 34.133333 32.426667 34.133333h133.12c30.72 0 56.32 25.6 56.32 56.32V290.133333c0 18.773333 15.36 32.426667 32.426666 32.426667s34.133333-15.36 34.133334-32.426667V155.306667C989.866667 88.746667 935.253333 34.133333 868.693333 34.133333zM957.44 701.44c-18.773333 0-32.426667 15.36-32.426667 32.426667v133.12c0 30.72-25.6 56.32-56.32 56.32H733.866667c-18.773333 0-32.426667 15.36-32.426667 32.426666s15.36 34.133333 32.426667 34.133334h133.12c66.56 0 121.173333-54.613333 121.173333-121.173334V733.866667c1.706667-17.066667-13.653333-32.426667-30.72-32.426667zM290.133333 923.306667H155.306667c-30.72 0-56.32-25.6-56.32-56.32V733.866667c0-18.773333-15.36-32.426667-32.426667-32.426667S34.133333 716.8 34.133333 733.866667v133.12c0 68.266667 54.613333 122.88 121.173334 122.88H290.133333c18.773333 0 32.426667-15.36 32.426667-32.426667s-15.36-34.133333-32.426667-34.133333zM290.133333 34.133333H155.306667C88.746667 34.133333 34.133333 88.746667 34.133333 155.306667V290.133333c0 18.773333 15.36 32.426667 32.426667 32.426667s34.133333-15.36 34.133333-32.426667V155.306667c0-30.72 25.6-56.32 56.32-56.32H290.133333c18.773333 0 32.426667-15.36 32.426667-32.426667S307.2 34.133333 290.133333 34.133333z" fill="#e6e6e6" p-id="25191"></path></svg>