<?xml version="1.0" standalone="no"?><!DOCTYPE svg PUBLIC "-//W3C//DTD SVG 1.1//EN" "http://www.w3.org/Graphics/SVG/1.1/DTD/svg11.dtd"><svg t="1757144488905" class="icon" viewBox="0 0 1024 1024" version="1.1" xmlns="http://www.w3.org/2000/svg" p-id="35967" xmlns:xlink="http://www.w3.org/1999/xlink" width="200" height="200"><path d="M429.541053 538.947368c10.024421 0 20.021895 2.937263 28.833684 8.650106 14.874947 9.485474 25.168842 25.869474 26.51621 44.732631l0.161685 4.311579v369.664C485.052632 998.184421 459.722105 1024 428.517053 1024c-29.830737 0-54.245053-23.525053-56.400842-53.355789l-0.161685-4.311579 0.026948-230.965895-252.038737 246.137263c-22.689684 22.177684-57.829053 20.426105-78.497684-3.934316a62.841263 62.841263 0 0 1 0.269473-80.572631l3.395369-3.610948 244.736-239.050105H56.535579c-29.803789 0-54.218105-23.552-56.373895-53.409684L0 596.614737c0-30.396632 23.066947-55.296 52.331789-57.505684L56.535579 538.947368h373.032421z m165.941894-538.947368c29.830737 0 54.245053 23.525053 56.400842 53.355789l0.161685 4.311579-0.026948 230.965895 252.038737-246.137263c22.689684-22.177684 57.829053-20.426105 78.497684 3.934316 19.590737 23.04 19.132632 58.098526-0.269473 80.572631l-3.395369 3.610948-244.736 239.050105h233.310316c29.803789 0 54.218105 23.552 56.373895 53.409684l0.161684 4.311579c0 30.396632-23.066947 55.296-52.331789 57.505684l-4.20379 0.161685H594.432a52.816842 52.816842 0 0 1-28.779789-8.650106 57.909895 57.909895 0 0 1-26.543158-44.732631L538.947368 427.385263V57.694316C538.947368 25.815579 564.277895 0 595.482947 0z" fill="#e6e6e6" p-id="35968"></path></svg>