<?xml version="1.0" standalone="no"?><!DOCTYPE svg PUBLIC "-//W3C//DTD SVG 1.1//EN" "http://www.w3.org/Graphics/SVG/1.1/DTD/svg11.dtd"><svg t="1757142671115" class="icon" viewBox="0 0 1024 1024" version="1.1" xmlns="http://www.w3.org/2000/svg" p-id="33517" xmlns:xlink="http://www.w3.org/1999/xlink" width="200" height="200"><path d="M115.52 55.168a42.688 42.688 0 0 0-60.352 60.352L266.112 326.4a356.608 356.608 0 0 1-31.168 1.152c-28.544 0-54.08 0-73.408 1.984-20.224 2.112-39.04 6.72-56 18.24-32.192 22.016-44.544 54.208-49.28 83.84-3.456 22.08-3.072 46.272-2.752 65.856v28.928c-0.32 19.52-0.64 43.712 2.816 65.792 4.672 29.632 17.024 61.824 49.28 83.84 16.896 11.52 35.712 16.128 55.936 18.24 19.328 1.984 44.864 1.984 73.408 1.984 32.96 0 51.84 2.752 67.392 9.152 15.488 6.4 30.72 17.792 53.76 41.28 44.8 45.76 82.88 84.672 112.896 107.648 29.312 22.528 64.128 40.832 101.312 25.088 36.864-15.616 48.64-53.12 53.76-90.048 3.712-26.496 4.8-59.968 5.12-99.904l279.296 279.296a42.688 42.688 0 1 0 60.352-60.352L115.52 55.168zM570.304 144.448c-37.12-15.68-72.064 2.56-101.376 25.088-17.088 13.184-36.928 31.488-59.072 53.376-8.512 8.384-12.8 12.608-12.8 17.92 0 5.312 4.224 9.6 12.8 18.112L585.6 434.752c18.56 18.56 27.904 27.904 35.84 24.64 7.872-3.264 7.872-16.448 7.872-42.752V389.12c0-64.704 0-116.736-5.248-154.56-5.12-36.928-16.896-74.432-53.76-90.048zM883.2 310.912a42.688 42.688 0 0 0-59.776 60.8C869.952 417.536 896 473.792 896 533.376c0 41.6-12.608 81.216-35.776 116.864a42.688 42.688 0 0 0 71.552 46.464c31.36-48.256 49.536-103.872 49.536-163.328 0-85.888-37.824-163.2-98.048-222.4zM758.336 399.616a42.688 42.688 0 1 0-65.92 54.144c21.12 25.792 32.896 56.448 32.896 88.96v2.048a42.688 42.688 0 1 0 85.376-2.048 224.64 224.64 0 0 0-52.352-143.104z" fill="#e6e6e6" p-id="33518"></path></svg>